<?xml version="1.0" encoding="UTF-8"?>
<svg width="170px" height="156px" viewBox="0 0 170 156" version="1.1" xmlns="http://www.w3.org/2000/svg" xmlns:xlink="http://www.w3.org/1999/xlink">
    <!-- Generator: Sketch 52.6 (67491) - http://www.bohemiancoding.com/sketch -->
    <title>knowledge</title>
    <desc>Created with Sketch.</desc>
    <g id="知识管理" stroke="none" stroke-width="1" fill="none" fill-rule="evenodd">
        <g id="illustrations" transform="translate(-212.000000, -246.000000)">
            <g id="knowledge" transform="translate(212.000000, 246.000000)">
                <g id="分组-2">
                    <path d="M6,10 L108.476995,10 L134,33.7631788 L134,150 C134,153.313708 131.313708,156 128,156 L6,156 C2.6862915,156 4.05812251e-16,153.313708 0,150 L8.8817842e-16,16 C4.82366169e-16,12.6862915 2.6862915,10 6,10 Z" id="Rectangle-8-Copy-3" fill="#E8EAF4"></path>
                    <path d="M16,6.39488462e-14 L114,1.10844667e-12 L144,30 L144,140 C144,143.313708 141.313708,146 138,146 L16,146 C12.6862915,146 10,143.313708 10,140 L10,6 C10,2.6862915 12.6862915,6.08718376e-16 16,0 Z" id="Rectangle-8-Copy" fill="#F2F4FD"></path>
                    <circle id="Oval-2" fill="#DEE0ED" cx="37" cy="31" r="9"></circle>
                    <circle id="Oval-2-Copy" fill="#DEE0ED" cx="37" cy="59" r="9"></circle>
                    <rect id="Rectangle-9" fill="#E8EAF4" x="56" y="25" width="66" height="4" rx="2"></rect>
                    <rect id="Rectangle-9-Copy" fill="#E8EAF4" x="56" y="53" width="66" height="4" rx="2"></rect>
                    <rect id="Rectangle-9-Copy-5" fill="#E8EAF4" x="28" y="81" width="94" height="4" rx="2"></rect>
                    <rect id="Rectangle-9-Copy-7" fill="#E8EAF4" x="28" y="103" width="94" height="4" rx="2"></rect>
                    <rect id="Rectangle-9-Copy-9" fill="#E8EAF4" x="28" y="125" width="94" height="4" rx="2"></rect>
                    <rect id="Rectangle-9-Copy-3" fill="#E8EAF4" x="56" y="33" width="37" height="4" rx="2"></rect>
                    <rect id="Rectangle-9-Copy-4" fill="#E8EAF4" x="56" y="61" width="37" height="4" rx="2"></rect>
                    <rect id="Rectangle-9-Copy-6" fill="#E8EAF4" x="28" y="89" width="53" height="4" rx="2"></rect>
                    <rect id="Rectangle-9-Copy-8" fill="#E8EAF4" x="28" y="111" width="53" height="4" rx="2"></rect>
                    <path d="M114,0 L138,0 C141.313708,-6.08718376e-16 144,2.6862915 144,6 L144,30 L114,0 Z" id="Rectangle-8-Copy-2" fill="#DEE0ED" transform="translate(129.000000, 15.000000) scale(-1, -1) translate(-129.000000, -15.000000) "></path>
                </g>
                <g id="分组" transform="translate(132.990381, 82.533321) rotate(-330.000000) translate(-132.990381, -82.533321) translate(117.990381, 30.533321)">
                    <rect id="矩形" fill="#6776C4" x="0" y="15.9616307" width="30" height="59.8561151"></rect>
                    <rect id="矩形" fill="#CFD5F1" x="3.75" y="15.7122302" width="4" height="59.8561151"></rect>
                    <path d="M0,75.8177458 L30,75.8177458 L17.0180917,102.150992 C16.4686291,103.265553 15.1196713,103.723656 14.0051101,103.174193 C13.5606812,102.955096 13.2010053,102.595421 12.9819083,102.150992 L0,75.8177458 Z" id="矩形-copy-2" fill="#FFBA1C"></path>
                    <path d="M8.39645004,92.9266187 L21.6903614,92.7744677 L17.0168433,102.183963 C16.4640744,103.296889 15.1137626,103.750985 14.0008374,103.198216 C13.5606898,102.979603 13.2042221,102.622894 12.9859073,102.182599 L8.39645004,92.9266187 Z" id="矩形-copy-2" fill="#2A2E76"></path>
                    <path d="M8,0 L22,0 C26.418278,-8.11624501e-16 30,3.581722 30,8 L30,15.9616307 L0,15.9616307 L0,8 C-5.41083001e-16,3.581722 3.581722,8.11624501e-16 8,0 Z" id="矩形-copy" fill="#2A2E76"></path>
                </g>
            </g>
        </g>
    </g>
</svg>