<svg xmlns="http://www.w3.org/2000/svg" viewBox="0 0 261 276" class="design-iconfont">
  <g fill="none" fill-rule="evenodd">
    <path stroke="#6580FE" d="M106.850588 275.421927L106.850588 224.372123 157.900392 224.372123" transform="translate(1)"/>
    <path d="M157.900392,224.372123 L157.900392,173.322319 L191.574544,173.322319 M200.421147,173.322319 L208.950196,173.322319" stroke="#6580FE" transform="translate(1)"/>
    <path d="M208.950196,173.322319 L208.950196,140.500159 M208.950196,132.311763 L208.950196,122.272515 L232.498304,122.272515 M246.497851,122.272515 L260,122.272515" stroke="#6580FE" transform="translate(1)"/>
    <path fill="#6580FE" transform="rotate(-90 136.374482 251.79398)" d="M135.874482 235.277379L154.200052 269.310581 117.548911 269.310581z"/>
    <path fill="#6580FE" d="M96.8334326 236.265698L80.7392701 242.536849 86.0310545 222.787641z" transform="translate(1)"/>
    <path d="M69.7500731,82.8790717 C82.3103464,82.8790717 92.4924598,70.9903819 92.4924598,56.3249398 C92.4924598,41.6594976 82.3103464,29.7708078 69.7500731,29.7708078 C62.3069669,29.7708078 52.828077,31.2132528 51.5501062,40.3992899 C36.8891187,46.9840924 43.9974812,60.3544026 48.8071768,61.5241841 C47.1559252,69.5751235 52.6200488,75.7952427 63.6600562,78.3861195 C67.570285,79.3037747 69.3506241,82.9683147 69.7500731,82.8790717 Z" fill="#0F1358" transform="rotate(14 68.140844 60.39791421)"/>
    <path d="M88.5287654,21.4962904 C93.263162,21.4962904 97.0055268,23.5175248 99.6224245,26.7441402 C102.517355,30.3135677 104.040149,35.34171 104.040149,40.7382068 C104.040149,45.8092703 102.448989,49.9937047 99.7446767,52.9275371 C96.9805505,55.9262596 93.0588252,57.6085047 88.5287654,57.6085047 C83.2604347,57.6085047 77.9618368,55.1366451 74.4750248,51.022042 C73.1401346,51.1998638 72.3119379,51.373188 71.4463729,51.373188 C69.5423714,51.373188 67.8207937,50.5336224 66.5737914,49.1827032 C65.3128798,47.8167156 64.5359175,45.9288413 64.5359175,43.8451947 C64.5359175,41.9510529 65.1779483,40.2188815 66.2419233,38.8931913 C67.3090703,37.5635488 68.8013467,36.6427908 70.4918343,36.3883988 C71.8266905,31.8064552 74.119285,28.1479202 77.2727712,25.5539859 C80.3597451,23.0147621 84.2721531,21.4962904 88.5287654,21.4962904 Z" stroke="#0F1358" fill="#FFF" transform="translate(1)"/>
    <path fill="#0F1358" d="M88.1198977 33.34704944A1.85261386 1.85261386 0 1 0 88.1198977 37.052277159999996A1.85261386 1.85261386 0 1 0 88.1198977 33.34704944Z" transform="translate(1)"/>
    <path d="M47.3576536,173.717984 C47.0560804,182.232263 46.6496304,187.39039 46.1383036,189.192364 C43.2229019,203.364572 39.471738,217.424079 34.8848117,231.370886 L65.4168213,241.130492 C70.8896648,221.884168 74.225755,209.425309 75.4250918,203.753913 C76.6244285,198.082518 77.9088281,188.816995 79.2782905,175.957345 L47.3576536,173.717984 Z" stroke="#0F1358" fill="#FFF" transform="translate(1)"/>
    <path d="M102.409384,166.768474 C104.976661,168.642071 106.260299,169.578869 106.260299,169.578869 C106.94277,178.120886 107.923552,190.209925 109.202644,205.845984 C129.648009,205.845984 139.870692,205.845984 139.870692,205.845984 C137.962316,189.155238 147.233315,156.743539 120.040138,139.430373 C120.040138,139.430373 114.16322,148.543074 102.409384,166.768474 Z" stroke="#0F1358" fill="#FFF" transform="translate(1)"/>
    <path d="M91.0566711,25.9442576 C98.2853138,25.9442576 103.448866,23.7237196 103.448866,18.5765581 C103.448866,13.4293966 98.4863755,11.2088587 91.0566711,11.2088587 C83.6269668,11.2088587 77.6040013,14.5074901 77.6040013,18.5765581 C77.6040013,22.6456262 75.5343598,26.6706124 91.0566711,25.9442576 Z" fill="#0F1358" transform="translate(1)"/>
    <path d="M70.7187097,37.2120029 C79.7076088,30.5127423 85.2177344,25.450275 87.2490863,22.0246011 C87.2490863,15.8537513 89.1279786,9.88060725 81.9920211,9.88060725 C74.8560635,9.88060725 69.071227,14.8830693 69.071227,21.0539191 C69.071227,25.1678189 69.6203879,30.5538468 70.7187097,37.2120029 Z" fill="#0F1358" transform="translate(1)"/>
    <path d="M49.4414043,127.140925 L46.6044296,174.400055 C71.0995598,176.569115 83.6321028,177.653645 84.2020584,177.653645 C86.2334104,170.816686 87.2490863,162.854454 87.2490863,153.76695 L101.06078,170.600237 L121.242831,139.49818 L106.570596,127.140925 L49.4414043,127.140925 Z" fill="#5365EA" transform="translate(1)"/>
    <path d="M76.326937,34.8776401 C78.7373492,30.2325049 83.70541,24.0978464 81.5590701,21.1005646 C79.4127301,18.1032828 70.5651175,16.4889777 65.5291503,21.1005646 C60.493183,25.7121514 60.312664,29.7726045 68.2814144,35.8172013 C68.4029957,35.9094253 73.953301,39.4519032 76.326937,34.8776401 Z" fill="#0F1358" transform="translate(1)"/>
    <path d="M79.6532548,62.5806207 C86.5403175,61.6144713 93.7458816,63.3183695 99.6661354,67.8614553 C106.997121,73.4871087 110.932593,82.4780404 110.092097,91.680481 C108.161012,112.824156 107.117308,124.538875 106.956491,126.824617 C97.9677491,129.180869 77.0823955,129.146407 44.3091535,126.753957 C48.5653516,101.505622 54.3354009,83.6439964 61.6503181,73.1853055 C66.2921807,67.1311055 72.8152412,63.5398894 79.6532548,62.5806207 Z" stroke="#0F1358" fill="#FFF" transform="translate(1)"/>
    <path d="M73.9165248,64.2239471 C73.9165248,68.3166286 79.4461479,71.6344025 86.2672838,71.6344025 C91.4953,71.6344025 95.9646353,69.6854232 97.7671379,66.9323557" stroke="#0F1358" transform="translate(1)"/>
    <path d="M77.9526165,80.8936725 C79.0684778,83.412204 79.9278282,85.1135333 80.5306677,85.9976604 C82.4659237,88.8359153 84.2020584,90.0591317 84.2020584,90.0591317" stroke="#0F1358" stroke-linecap="square" transform="translate(1)"/>
    <path stroke="#0F1358" stroke-linecap="square" d="M62.447965 95.7610602L68.3856776 103.665985" transform="translate(1)"/>
    <path d="M85.0868139,91.5321478 L69.3216218,104.910529 C83.2422968,123.194688 96.8352217,131.246322 110.100397,129.065432 C129.998159,125.794097 148.349927,113.464398 150.704715,106.675775 C153.059503,99.8871512 151.458051,85.716222 147.997627,83.937502 C147.033471,83.937502 146.580757,85.7898805 146.639482,89.4946375 L144.277244,103.766686 C139.402682,103.960534 135.896544,104.341815 133.75883,104.910529 C126.780535,106.767025 119.069295,109.526771 112.889419,109.13851 C103.869851,108.571839 94.6023162,102.703052 85.0868139,91.5321478 Z" stroke="#0F1358" fill="#FFF" transform="translate(1)"/>
    <path stroke="#0F1358" stroke-width="2.6" stroke-linecap="round" d="M143.120716 102.351092L153.954063 63.8019623" transform="translate(1)"/>
    <path d="M109.74484,93.2909084 C112.925639,92.7023494 115.337565,92.3182215 116.980618,92.1385247 C120.562477,91.8789667 124.709773,93.7984266 126.033896,94.6623089 C127.66383,95.8408214 128.985865,98.0114445 130,101.174178 C122.517218,100.98158 117.480667,101.203706 114.890346,101.840557 C113.377334,104.004944 111.364172,105.108118 108.85086,105.150078 L109.74484,93.2909084 Z" stroke="#0F1358" fill="#FFF" transform="translate(1)"/>
    <path stroke="#0F1358" stroke-width="2.6" stroke-linecap="round" d="M143.120716 102.351092L115.291568 103.128838" transform="translate(1)"/>
    <path stroke="#0F1358" stroke-linecap="square" d="M38.3122427 223.130206L67.9142669 232.134733" transform="translate(1)"/>
    <path d="M34.3099402,231.068664 L28.3340565,246.10562 L70.3626011,264.717936 C73.2160867,260.766554 72.8076417,255.334061 69.3954084,251.853766 C69.1225459,251.575461 68.8489273,251.289717 68.5745527,250.996531 C66.0901419,248.341791 65.0375648,245.053111 65.4168213,241.130492 L34.3099402,231.068664 Z" fill="#0F1358" transform="translate(1)"/>
    <path stroke="#FFF" stroke-linecap="round" stroke-linejoin="round" d="M67.9142669 250.839496L62.2575475 254.211604" transform="translate(1)"/>
    <path stroke="#FFF" stroke-linecap="round" d="M65.8706799 246.617854L57.5617372 250.839496" transform="translate(1)"/>
    <path stroke="#0F1358" stroke-linecap="square" d="M109.841745 197.327959L139.38126 196.994607" transform="translate(1)"/>
    <path d="M108.652331,205.845984 L108.404462,224.597784 L154.854014,224.597784 L155.180284,222.562172 C155.87952,218.199578 152.909786,214.096151 148.547193,213.396911 C148.375256,213.369352 148.202464,213.347415 148.029095,213.331134 C145.39278,213.083557 143.747803,212.803135 143.094166,212.489868 C141.781687,210.311145 140.77503,208.096518 140.074195,205.845984 L108.652331,205.845984 Z" fill="#0F1358" transform="translate(1)"/>
    <path stroke="#FFF" stroke-linecap="round" d="M147.051556 213.275459L143.840515 219.76843" transform="translate(1)"/>
    <path stroke="#FFF" stroke-linecap="round" d="M143.094166 211.813865L138.099794 219.191932" transform="translate(1)"/>
    <path d="M68.9970477,40.4770898 C73.0338722,40.8930327 75.1391542,43.0638227 75.3128936,46.9894597" stroke="#0F1358" stroke-linecap="round" transform="rotate(-21 72.654971 41.03551641)"/>
    <path d="M96.2497095,35.1996633 C97.1812245,39.8812996 97.1812245,43.4809738 96.2497095,45.9986861" stroke="#0F1358" stroke-linecap="round" transform="translate(1)"/>
    <path d="M71.5937676,191.48868 C69.8619046,194.254574 69.4289389,196.625744 70.2948704,198.602191" stroke="#0F1358" transform="rotate(-19 71.227836 192.05755382)"/>
    <path d="M126.07925,156.614745 C125.979961,159.665514 127.213187,161.723974 129.778929,162.790124" stroke="#0F1358" transform="rotate(-19 128.426315 156.71455282)"/>
    <path d="M86.1718473,152.025917 L86.7343002,143.964773 C90.5676016,144.786874 93.8091584,144.384118 96.4589706,142.756505" stroke="#FFF" stroke-linecap="round" stroke-linejoin="round" transform="rotate(-7 91.815409 139.21628326)"/>
    <path stroke="#0F1358" d="M134.314106 68.821953L142.543404 77.208009" transform="translate(1)"/>
    <g stroke="#0F1358" stroke-linecap="round">
      <path d="M0 0L5.67897989 5.90013927" transform="translate(167.547218 3.705228)"/>
      <path d="M5.90013927 0L0 5.67897989" transform="translate(167.547218 3.705228)"/>
    </g>
    <path d="M202.969954,98.8331059 C205.901394,98.8331059 208.555314,100.021307 210.476375,101.942368 C212.287601,103.753594 213.447373,106.216274 213.57407,108.948789 L213.57407,108.948789 L192.365838,108.948789 C192.492535,106.216274 193.652306,103.753594 195.463532,101.942368 C197.384593,100.021307 200.038514,98.8331059 202.969954,98.8331059 Z" stroke="#0F1358" fill="#FFF" transform="rotate(60 203.469954 104.7569734)"/>
    <path fill="#5365EA" transform="rotate(60 194.378293 110.0060454)" d="M193.878293 105.43479228000001A3.70522772 3.70522772 0 1 0 193.878293 112.84524772A3.70522772 3.70522772 0 1 0 193.878293 105.43479228000001Z"/>
    <g stroke="#0F1358" stroke-linecap="round">
      <path d="M0 0.43666527L8.64553134 10.3172725" transform="rotate(-40 295.13094887 -115.71154449)"/>
      <path d="M8.46465866 0L1.05420323 9.88060725" transform="rotate(-40 295.13094887 -115.71154449)"/>
    </g>
    <path stroke="#0F1358" d="M139.590165 82.7645719L128.451471 82.7645719" transform="translate(1)"/>
    <path d="M34.0590567,20.1545871 L30.6324961,20.1545871 L30.6324961,12.1530687 C30.6324961,5.44867163 25.2040123,0 18.5258164,0 C11.8481575,0 6.41376764,5.44867163 6.41376764,12.1530687 L6.41376764,20.1545871 L2.98989158,20.1545871 C1.33814118,20.1545871 0,21.4982584 0,23.1563981 L0,45.0682384 C0,46.7286867 1.33814118,48.0728413 2.98989158,48.0728413 L34.0622245,48.0728413 C35.7139749,48.0728413 37.0522772,46.7286867 37.0522772,45.0682921 L37.0522772,23.1563444 C37.0522772,21.4982047 35.7140286,20.1544797 34.0590567,20.1544797 L34.0590567,20.1545871 Z M20.2046271,34.6841276 L20.2046271,39.467138 C20.2046271,39.6813651 20.0281984,39.8632166 19.8139713,39.8632166 L17.2410978,39.8632166 C17.0236492,39.8632166 16.8477574,39.6813651 16.8477574,39.467138 L16.8477574,34.6841276 C15.6390116,34.0623856 14.802613,32.8213178 14.802613,31.3660228 C14.802613,29.3030529 16.4721351,27.6276248 18.5258701,27.6276248 C20.5801958,27.6276248 22.2466331,29.3030529 22.2466331,31.3659691 C22.2523488,32.8213178 21.4133193,34.0623856 20.2045734,34.6840739 L20.2046271,34.6841276 Z M25.9844649,20.1545871 L11.0674364,20.1545871 L11.0674364,12.3497926 C11.0674364,8.22149044 14.4183464,4.86193622 18.5290916,4.86193622 C22.6425751,4.86193622 25.9844649,8.22149044 25.9844649,12.3497926 L25.9844649,20.1545871 L25.9844649,20.1545871 Z" transform="translate(129.259865)" fill="#FF9E4D" fill-rule="nonzero"/>
    <path stroke="#0F1358" d="M87.92778 212.848287L96.5302728 215.058446" transform="translate(1)"/>
    <path stroke="#0F1358" d="M84.6427179 217.851275L95.3887437 219.581314" transform="translate(1)"/>
    <path stroke="#0F1358" d="M16.6962493 173.948417L24.0942227 181.110447" transform="translate(1)"/>
    <path stroke="#0F1358" d="M0 206.221448L11.5451915 201.934911" transform="translate(1)"/>
    <path stroke="#0F1358" transform="rotate(-45 28.207131 265.56928922)" d="M24.5019033 263.571168H30.912358729999998V269.98162343H24.5019033z"/>
  </g>
</svg>
