<?xml version="1.0" encoding="UTF-8"?>
<svg width="18px" height="18px" viewBox="0 0 18 18" version="1.1" xmlns="http://www.w3.org/2000/svg" xmlns:xlink="http://www.w3.org/1999/xlink">
    <title>切片</title>
    <g id="页面-1" stroke="none" stroke-width="1" fill="none" fill-rule="evenodd">
        <g id="在线预览-文件夹-列表视图" transform="translate(-306.000000, -757.000000)">
            <g id="知识库tree" transform="translate(276.000000, 128.000000)">
                <g id="tree-item/1" transform="translate(6.000000, 620.000000)">
                    <g id="ic/check_box_outline" transform="translate(24.000000, 9.000000)">
                        <polygon id="路径" points="0 0 18 0 18 18 0 18"></polygon>
                        <g id="编组" transform="translate(0.464062, 2.171250)" fill-rule="nonzero">
                            <path d="M15.3646875,1.7071875 L8.5359375,1.7071875 L6.82875,0 L1.7071875,0 C0.768234375,0 0.0085359375,0.768234375 0.0085359375,1.7071875 L0,11.9503125 C0,12.8892656 0.768234375,13.6575 1.7071875,13.6575 L15.3646875,13.6575 C16.3036406,13.6575 17.071875,12.8892656 17.071875,11.9503125 L17.071875,3.414375 C17.071875,2.47542187 16.3036406,1.7071875 15.3646875,1.7071875 Z" id="路径" fill="#FAAD14"></path>
                            <path d="M15.3646875,1.7071875 L8.5359375,1.7071875 L0.0085359375,1.7071875 L0,11.9503125 C0,12.8892656 0.768234375,13.6575 1.7071875,13.6575 L15.3646875,13.6575 C16.3036406,13.6575 17.071875,12.8892656 17.071875,11.9503125 L17.071875,3.414375 C17.071875,2.47542188 16.3036406,1.7071875 15.3646875,1.7071875 Z" id="路径" fill="#FFCD69"></path>
                        </g>
                    </g>
                </g>
            </g>
        </g>
    </g>
</svg>