<?xml version="1.0" encoding="UTF-8"?>
<svg width="18px" height="18px" viewBox="0 0 18 18" version="1.1" xmlns="http://www.w3.org/2000/svg" xmlns:xlink="http://www.w3.org/1999/xlink">
    <title>切片</title>
    <defs>
        <linearGradient x1="75.50908%" y1="14.4000373%" x2="13.2653061%" y2="100%" id="linearGradient-1">
            <stop stop-color="#45ECD8" offset="0%"></stop>
            <stop stop-color="#2EE6D0" offset="0%"></stop>
            <stop stop-color="#00C6B6" offset="100%"></stop>
        </linearGradient>
    </defs>
    <g id="页面-1" stroke="none" stroke-width="1" fill="none" fill-rule="evenodd">
        <g id="在线预览-文件夹-列表视图" transform="translate(-504.000000, -307.000000)">
            <g id="数据录入/Select/下拉菜单-通用单选" transform="translate(492.000219, 198.000000)">
                <g id="ic/folder" transform="translate(11.999781, 109.000000)">
                    <polygon id="路径" points="0 0 18 0 18 18 0 18"></polygon>
                    <g id="编组" transform="translate(1.285714, 0.000000)" fill-rule="nonzero">
                        <path d="M10.2857143,0 L15.4285714,4.39285714 L15.4285714,16.0714286 C15.4285714,17.1365492 14.5651206,18 13.5,18 L1.92857143,18 C0.86345084,18 0,17.1365492 0,16.0714286 L0,1.92857143 C0,0.86345084 0.86345084,0 1.92857143,0 L10.2857143,0 Z" id="路径" fill="url(#linearGradient-1)"></path>
                        <polygon id="路径" fill="#00C6B6" points="10.2857143 4.39285714 15.4285714 4.39285714 10.2857143 0"></polygon>
                    </g>
                    <path d="M8.16666667,8.85416667 L8.16666667,7.1875 L5.25,10.1041667 L8.16666667,13.0208333 L8.16666667,11.3125 C10.25,11.3125 11.7083333,11.9791667 12.75,13.4375 C12.3333333,11.3541667 11.0833333,9.27083333 8.16666667,8.85416667 Z" id="路径" fill="#FFFFFF" fill-rule="nonzero"></path>
                </g>
            </g>
        </g>
    </g>
</svg>