<?xml version="1.0" encoding="UTF-8"?>
<svg width="18px" height="18px" viewBox="0 0 18 18" version="1.1" xmlns="http://www.w3.org/2000/svg" xmlns:xlink="http://www.w3.org/1999/xlink">
    <title>切片</title>
    <defs>
        <linearGradient x1="76.2333254%" y1="14.2851269%" x2="13.2653061%" y2="100%" id="linearGradient-1">
            <stop stop-color="#7ED6F9" offset="0%"></stop>
            <stop stop-color="#22B0E9" offset="100%"></stop>
        </linearGradient>
    </defs>
    <g id="页面-1" stroke="none" stroke-width="1" fill="none" fill-rule="evenodd">
        <g id="在线预览-文件" transform="translate(-330.000000, -645.000000)">
            <g id="知识库tree" transform="translate(276.000000, 128.000000)">
                <g id="tree-item/1" transform="translate(30.000000, 508.000000)">
                    <g id="ic/check_box_outline" transform="translate(24.000000, 9.000000)">
                        <polygon id="路径" points="0 0 18 0 18 18 0 18"></polygon>
                        <g id="编组" transform="translate(1.285714, 0.000000)">
                            <path d="M10.2857143,0 L15.4285714,4.39285714 L15.4285714,16.0714286 C15.4285714,17.1365492 14.5651206,18 13.5,18 L1.92857143,18 C0.86345084,18 0,17.1365492 0,16.0714286 L0,1.92857143 C0,0.86345084 0.86345084,0 1.92857143,0 L10.2857143,0 Z" id="路径" fill="url(#linearGradient-1)"></path>
                            <polygon id="路径" fill="#22B0E9" fill-rule="nonzero" points="10.2857143 4.39285714 15.4285714 4.39285714 10.2857143 0"></polygon>
                        </g>
                        <path d="M3,12.4018409 L3,8.16283465 L3.91925466,8.16283465 L5.09018634,10.7901638 L5.11826087,10.7901638 L6.2889441,8.16283465 L7.19279503,8.16283465 L7.19279503,12.4018409 L6.39130435,12.4018409 L6.39130435,9.65649925 L6.35403727,9.65649925 L5.37888199,11.8366235 L4.81689441,11.8366235 L3.83875776,9.65649925 L3.80149068,9.65649925 L3.80149068,12.4018409 L3,12.4018409 Z M8.08397516,12.4018409 L8.08397516,8.16283465 L9.81242236,8.16283465 C10.264265,8.16283465 10.6191304,8.29716177 10.8770186,8.56581602 C11.1349068,8.83447026 11.2639337,9.17476012 11.2640994,9.58668558 C11.2640994,10.0052363 11.1349068,10.3471825 10.8765217,10.6125241 C10.6181366,10.8778657 10.2614493,11.0103709 9.80645963,11.0100396 L8.98658385,11.0100396 L8.98658385,12.401344 L8.08397516,12.4018409 Z M8.98459627,10.3210955 L9.45863354,10.3210955 C9.75196687,10.3210955 9.97399586,10.2651121 10.1247205,10.1531452 C10.2754451,10.0411783 10.3508903,9.85235846 10.3510559,9.58668558 C10.3510559,9.35231705 10.2875362,9.17128186 10.1604969,9.04357999 C10.0334576,8.91587813 9.8563147,8.8520272 9.62906832,8.8520272 L8.98459627,8.8520272 L8.98459627,10.3210955 Z M11.6024845,11.6440769 L11.6024845,10.9143874 C11.7162733,10.697079 11.847205,10.4589837 11.9952795,10.2001017 C12.143354,9.94121974 12.2691511,9.72540194 12.3726708,9.55264832 C12.4761905,9.37972906 12.6226915,9.13699614 12.8121739,8.82444956 C13.0016563,8.51190297 13.1346584,8.29144749 13.2111801,8.1630831 L14.493913,8.1630831 L14.493913,10.9173688 L15,10.9173688 L15,11.6440769 L14.493913,11.6440769 L14.493913,12.4018409 L13.6491925,12.4018409 L13.6491925,11.6440769 L11.6024845,11.6440769 Z M12.4007453,10.9173688 L13.6491925,10.9173688 L13.6491925,8.82743092 L13.6151553,8.82743092 C13.0934161,9.66188227 12.6886957,10.3554641 12.4009938,10.9081763 L12.4007453,10.9173688 Z" id="形状" fill="#FFFFFF" fill-rule="nonzero"></path>
                    </g>
                </g>
            </g>
        </g>
    </g>
</svg>