<?xml version="1.0" encoding="UTF-8"?>
<svg width="20px" height="20px" viewBox="0 0 20 20" version="1.1" xmlns="http://www.w3.org/2000/svg" xmlns:xlink="http://www.w3.org/1999/xlink">
    <title>下载 (1)</title>
    <g id="页面-1" stroke="none" stroke-width="1" fill="none" fill-rule="evenodd">
        <g id="在线预览-文件夹-列表视图" transform="translate(-520.000000, -174.000000)">
            <g id="知识库tree" transform="translate(276.000000, 128.000000)">
                <g id="下载-(1)" transform="translate(244.000000, 46.000000)">
                    <polygon id="路径" points="0 0 20 0 20 20 0 20"></polygon>
                    <path d="M7.75,5.75 L5.75,7.75 L3.75,5.75 M7.75,14.25 L5.75,12.25 L3.75,14.25" id="形状" stroke="#686FFF" stroke-width="2" stroke-linecap="round" stroke-linejoin="round"></path>
                    <path d="M15.25,13 C15.8022847,13 16.25,13.4477153 16.25,14 C16.25,14.5522847 15.8022847,15 15.25,15 L12.25,15 C11.6977153,15 11.25,14.5522847 11.25,14 C11.25,13.4477153 11.6977153,13 12.25,13 L15.25,13 Z M15.25,9 C15.8022847,9 16.25,9.44771525 16.25,10 C16.25,10.5522847 15.8022847,11 15.25,11 L10.25,11 C9.69771525,11 9.25,10.5522847 9.25,10 C9.25,9.44771525 9.69771525,9 10.25,9 L15.25,9 Z M15.25,5 C15.8022847,5 16.25,5.44771525 16.25,6 C16.25,6.55228475 15.8022847,7 15.25,7 L12.25,7 C11.6977153,7 11.25,6.55228475 11.25,6 C11.25,5.44771525 11.6977153,5 12.25,5 L15.25,5 Z" id="形状" fill="#686FFF" fill-rule="nonzero"></path>
                </g>
            </g>
        </g>
    </g>
</svg>