<?xml version="1.0" encoding="UTF-8"?>
<svg width="18px" height="18px" viewBox="0 0 18 18" version="1.1" xmlns="http://www.w3.org/2000/svg" xmlns:xlink="http://www.w3.org/1999/xlink">
    <title>切片</title>
    <defs>
        <linearGradient x1="76.2333254%" y1="14.2851269%" x2="13.2653061%" y2="100%" id="linearGradient-1">
            <stop stop-color="#FD729C" offset="0%"></stop>
            <stop stop-color="#FF2E6D" offset="100%"></stop>
        </linearGradient>
        <path d="M12.2083333,10.5 L12.2083333,13.7083333 L5.79166667,13.7083333 L5.79166667,10.5 L4.875,10.5 L4.875,13.7083333 C4.875,14.2125 5.2875,14.625 5.79166667,14.625 L12.2083333,14.625 C12.7125,14.625 13.125,14.2125 13.125,13.7083333 L13.125,10.5 L12.2083333,10.5 Z M9.45833333,8.13041667 L10.6454167,9.31291667 L11.2916667,8.66666667 L9,6.375 L6.70833333,8.66666667 L7.35458333,9.31291667 L8.54166667,8.13041667 L8.54166667,12.5625 L9.45833333,12.5625 L9.45833333,8.13041667 Z" id="path-2"></path>
    </defs>
    <g id="页面-1" stroke="none" stroke-width="1" fill="none" fill-rule="evenodd">
        <g id="在线预览-文件夹-列表视图" transform="translate(-504.000000, -275.000000)">
            <g id="数据录入/Select/下拉菜单-通用单选" transform="translate(492.000219, 198.000000)">
                <g id="ic/folder" transform="translate(11.999781, 77.000000)">
                    <polygon id="路径" points="0 0 18 0 18 18 0 18"></polygon>
                    <g id="编组" transform="translate(1.285714, 0.000000)">
                        <path d="M10.2857143,0 L15.4285714,4.39285714 L15.4285714,16.0714286 C15.4285714,17.1365492 14.5651206,18 13.5,18 L1.92857143,18 C0.86345084,18 0,17.1365492 0,16.0714286 L0,1.92857143 C0,0.86345084 0.86345084,0 1.92857143,0 L10.2857143,0 Z" id="路径" fill="url(#linearGradient-1)"></path>
                        <polygon id="路径" fill="#F8326E" fill-rule="nonzero" points="10.2857143 4.39285714 15.4285714 4.39285714 10.2857143 0"></polygon>
                    </g>
                    <mask id="mask-3" fill="white">
                        <use xlink:href="#path-2"></use>
                    </mask>
                    <use id="蒙版" fill="#FFFFFF" fill-rule="nonzero" xlink:href="#path-2"></use>
                </g>
            </g>
        </g>
    </g>
</svg>